<svg xmlns="http://www.w3.org/2000/svg" version="1.1" xmlns:xlink="http://www.w3.org/1999/xlink" xmlns:svgjs="http://svgjs.dev/svgjs" width="1000" height="1000"><g clip-path="url(#SvgjsClipPath1082)"><rect width="1000" height="1000" fill="#ffffff"></rect><g transform="matrix(7.142857142857143,0,0,7.142857142857143,150,332.1428571428571)"><svg xmlns="http://www.w3.org/2000/svg" version="1.1" xmlns:xlink="http://www.w3.org/1999/xlink" xmlns:svgjs="http://svgjs.dev/svgjs" width="98" height="47"><svg width="98" height="47" viewBox="0 0 98 47" fill="none" xmlns="http://www.w3.org/2000/svg">
<path d="M23.1746 23.6165L38.9243 14.4962C42.6206 12.3667 43.9063 7.62575 41.7769 3.88921C39.6475 0.152676 34.9065 -1.09284 31.1699 1.03659L3.92939 16.7461L23.1746 23.6165Z" fill="#EA4335"></path>
<path d="M35.027 47C37.7189 47 40.3305 45.5938 41.7367 43.1028C43.8661 39.4064 42.6206 34.6654 38.8841 32.4958L11.6435 16.7863C7.94717 14.6569 3.20619 15.9024 1.03659 19.6389C-1.09284 23.3353 0.152675 28.0763 3.88921 30.2459L31.1298 45.9554C32.3753 46.6384 33.7413 47 35.027 47Z" fill="#4285F4"></path>
<path d="M62.147 47C63.4729 47 64.7988 46.6786 66.0041 45.9554L93.2447 30.2459L74.2807 23.2951L58.29 32.536C54.5936 34.6654 53.3079 39.4064 55.4373 43.1429C56.8436 45.5938 59.4551 47 62.147 47Z" fill="#FBBC04"></path>
<path d="M89.3474 31.2503C92.0393 31.2503 94.6509 29.8441 96.0571 27.3932C98.1865 23.6969 96.941 18.9559 93.2045 16.7863L66.0041 1.07677C62.3077 -1.05266 57.5668 0.192853 55.3972 3.92939C53.2677 7.62575 54.5133 12.3667 58.2498 14.5363L85.4903 30.2459C86.6957 30.9289 88.0215 31.2503 89.3474 31.2503Z" fill="#0F9D58"></path>
</svg></svg></g></g><defs><clipPath id="SvgjsClipPath1082"><rect width="1000" height="1000" x="0" y="0" rx="500" ry="500"></rect></clipPath></defs></svg>